<?xml version="1.0" standalone="no"?>
<!DOCTYPE svg PUBLIC "-//W3C//DTD SVG 20010904//EN"
 "http://www.w3.org/TR/2001/REC-SVG-20010904/DTD/svg10.dtd">
<svg version="1.0" xmlns="http://www.w3.org/2000/svg"
 width="24.000000pt" height="24.000000pt" viewBox="0 0 24.000000 24.000000"
 preserveAspectRatio="xMidYMid meet">

<g transform="translate(0.000000,24.000000) scale(0.100000,-0.100000)"
fill="#000000" stroke="none">
<path d="M33 184 c23 -7 22 -20 -4 -27 -29 -8 -18 -32 15 -33 24 -1 27 2 24
30 -2 25 -8 31 -28 33 -14 1 -18 0 -7 -3z m22 -44 c-3 -5 -13 -10 -21 -10 -8
0 -12 5 -9 10 3 6 13 10 21 10 8 0 12 -4 9 -10z"/>
<path d="M81 180 c-1 -24 11 -60 19 -60 5 0 12 10 16 22 l7 23 9 -25 9 -25 14
25 c17 29 19 54 5 45 -5 -3 -10 -16 -11 -28 -1 -21 -1 -21 -8 2 -10 36 -31 38
-31 4 l-1 -28 -14 30 c-7 17 -14 23 -14 15z"/>
<path d="M180 175 c0 -8 10 -20 23 -27 l22 -12 -25 -7 c-23 -6 -23 -7 -3 -8
33 -1 39 19 12 39 l-23 18 25 5 c23 4 23 4 -3 6 -19 1 -28 -4 -28 -14z"/>
</g>
</svg>
